<svg width="219" height="34" viewBox="0 0 219 34" fill="none" xmlns="http://www.w3.org/2000/svg">
<path d="M22.0781 0.799998H31.1861V33H22.0781V0.799998ZM9.65808 33H0.550078V0.799998H9.65808V33ZM22.7221 20.442H9.01408V12.898H22.7221V20.442ZM53.8486 33.644C51.2726 33.644 48.896 33.23 46.7186 32.402C44.5413 31.574 42.64 30.4087 41.0146 28.906C39.42 27.3727 38.178 25.594 37.2886 23.57C36.3993 21.546 35.9546 19.3227 35.9546 16.9C35.9546 14.4773 36.3993 12.254 37.2886 10.23C38.178 8.206 39.42 6.44266 41.0146 4.94C42.64 3.40667 44.5413 2.226 46.7186 1.398C48.896 0.569998 51.2726 0.155998 53.8486 0.155998C56.4553 0.155998 58.832 0.569998 60.9786 1.398C63.156 2.226 65.042 3.40667 66.6366 4.94C68.2313 6.44266 69.4733 8.206 70.3626 10.23C71.2826 12.254 71.7426 14.4773 71.7426 16.9C71.7426 19.3227 71.2826 21.5613 70.3626 23.616C69.4733 25.64 68.2313 27.4033 66.6366 28.906C65.042 30.4087 63.156 31.574 60.9786 32.402C58.832 33.23 56.4553 33.644 53.8486 33.644ZM53.8486 26.1C55.0753 26.1 56.21 25.8853 57.2526 25.456C58.326 25.0267 59.246 24.4133 60.0126 23.616C60.81 22.788 61.4233 21.8067 61.8526 20.672C62.3126 19.5373 62.5426 18.28 62.5426 16.9C62.5426 15.4893 62.3126 14.232 61.8526 13.128C61.4233 11.9933 60.81 11.0273 60.0126 10.23C59.246 9.402 58.326 8.77333 57.2526 8.344C56.21 7.91467 55.0753 7.7 53.8486 7.7C52.622 7.7 51.472 7.91467 50.3986 8.344C49.356 8.77333 48.436 9.402 47.6386 10.23C46.872 11.0273 46.2586 11.9933 45.7986 13.128C45.3693 14.232 45.1546 15.4893 45.1546 16.9C45.1546 18.28 45.3693 19.5373 45.7986 20.672C46.2586 21.8067 46.872 22.788 47.6386 23.616C48.436 24.4133 49.356 25.0267 50.3986 25.456C51.472 25.8853 52.622 26.1 53.8486 26.1ZM76.513 33V0.799998H92.981C97.213 0.799998 100.372 1.582 102.457 3.146C104.542 4.67933 105.585 6.70333 105.585 9.218C105.585 10.874 105.14 12.3307 104.251 13.588C103.392 14.8147 102.166 15.796 100.571 16.532C99.007 17.2373 97.1363 17.59 94.959 17.59L95.879 15.382C98.1483 15.382 100.126 15.7347 101.813 16.44C103.5 17.1147 104.803 18.1113 105.723 19.43C106.674 20.718 107.149 22.2973 107.149 24.168C107.149 26.9587 106.014 29.136 103.745 30.7C101.506 32.2333 98.225 33 93.901 33H76.513ZM85.529 26.422H93.165C94.729 26.422 95.9096 26.1613 96.707 25.64C97.535 25.088 97.949 24.26 97.949 23.156C97.949 22.052 97.535 21.2393 96.707 20.718C95.9096 20.166 94.729 19.89 93.165 19.89H84.885V13.588H91.785C93.3183 13.588 94.4683 13.3273 95.235 12.806C96.0016 12.2847 96.385 11.5027 96.385 10.46C96.385 9.41733 96.0016 8.65066 95.235 8.16C94.4683 7.63867 93.3183 7.378 91.785 7.378H85.529V26.422ZM128.104 33.644C125.528 33.644 123.152 33.23 120.974 32.402C118.797 31.574 116.896 30.4087 115.27 28.906C113.676 27.3727 112.434 25.594 111.544 23.57C110.655 21.546 110.21 19.3227 110.21 16.9C110.21 14.4773 110.655 12.254 111.544 10.23C112.434 8.206 113.676 6.44266 115.27 4.94C116.896 3.40667 118.797 2.226 120.974 1.398C123.152 0.569998 125.528 0.155998 128.104 0.155998C130.711 0.155998 133.088 0.569998 135.234 1.398C137.412 2.226 139.298 3.40667 140.892 4.94C142.487 6.44266 143.729 8.206 144.618 10.23C145.538 12.254 145.998 14.4773 145.998 16.9C145.998 19.3227 145.538 21.5613 144.618 23.616C143.729 25.64 142.487 27.4033 140.892 28.906C139.298 30.4087 137.412 31.574 135.234 32.402C133.088 33.23 130.711 33.644 128.104 33.644ZM128.104 26.1C129.331 26.1 130.466 25.8853 131.508 25.456C132.582 25.0267 133.502 24.4133 134.268 23.616C135.066 22.788 135.679 21.8067 136.108 20.672C136.568 19.5373 136.798 18.28 136.798 16.9C136.798 15.4893 136.568 14.232 136.108 13.128C135.679 11.9933 135.066 11.0273 134.268 10.23C133.502 9.402 132.582 8.77333 131.508 8.344C130.466 7.91467 129.331 7.7 128.104 7.7C126.878 7.7 125.728 7.91467 124.654 8.344C123.612 8.77333 122.692 9.402 121.894 10.23C121.128 11.0273 120.514 11.9933 120.054 13.128C119.625 14.232 119.41 15.4893 119.41 16.9C119.41 18.28 119.625 19.5373 120.054 20.672C120.514 21.8067 121.128 22.788 121.894 23.616C122.692 24.4133 123.612 25.0267 124.654 25.456C125.728 25.8853 126.878 26.1 128.104 26.1ZM162.085 33.644C159.447 33.644 156.902 33.322 154.449 32.678C152.026 32.0033 150.048 31.1447 148.515 30.102L151.505 23.386C152.946 24.306 154.602 25.0727 156.473 25.686C158.374 26.2687 160.26 26.56 162.131 26.56C163.388 26.56 164.4 26.4527 165.167 26.238C165.933 25.9927 166.485 25.686 166.823 25.318C167.191 24.9193 167.375 24.4593 167.375 23.938C167.375 23.202 167.037 22.6193 166.363 22.19C165.688 21.7607 164.814 21.408 163.741 21.132C162.667 20.856 161.471 20.58 160.153 20.304C158.865 20.028 157.561 19.6753 156.243 19.246C154.955 18.8167 153.774 18.2647 152.701 17.59C151.627 16.8847 150.753 15.98 150.079 14.876C149.404 13.7413 149.067 12.3153 149.067 10.598C149.067 8.666 149.588 6.918 150.631 5.354C151.704 3.79 153.299 2.53267 155.415 1.582C157.531 0.631331 160.168 0.155998 163.327 0.155998C165.443 0.155998 167.513 0.401332 169.537 0.891999C171.591 1.352 173.416 2.042 175.011 2.962L172.205 9.724C170.671 8.896 169.153 8.28267 167.651 7.884C166.148 7.45467 164.691 7.24 163.281 7.24C162.023 7.24 161.011 7.378 160.245 7.654C159.478 7.89933 158.926 8.23666 158.589 8.666C158.251 9.09533 158.083 9.586 158.083 10.138C158.083 10.8433 158.405 11.4107 159.049 11.84C159.723 12.2387 160.597 12.576 161.671 12.852C162.775 13.0973 163.971 13.358 165.259 13.634C166.577 13.91 167.881 14.2627 169.169 14.692C170.487 15.0907 171.683 15.6427 172.757 16.348C173.83 17.0227 174.689 17.9273 175.333 19.062C176.007 20.166 176.345 21.5613 176.345 23.248C176.345 25.1187 175.808 26.8513 174.735 28.446C173.692 30.01 172.113 31.2673 169.997 32.218C167.911 33.1687 165.274 33.644 162.085 33.644ZM186.957 33V8.022H177.067V0.799998H205.909V8.022H196.065V33H186.957ZM209.302 33V0.799998H218.41V33H209.302Z" fill="white"/>
</svg>
