<svg width="105" height="17" viewBox="0 0 105 17" fill="none" xmlns="http://www.w3.org/2000/svg">
<path d="M10.6895 0.599999H15.0455V16H10.6895V0.599999ZM4.74952 16H0.393516V0.599999H4.74952V16ZM10.9975 9.994H4.44152V6.386H10.9975V9.994ZM25.8841 16.308C24.6521 16.308 23.5155 16.11 22.4741 15.714C21.4328 15.318 20.5235 14.7607 19.7461 14.042C18.9835 13.3087 18.3895 12.458 17.9641 11.49C17.5388 10.522 17.3261 9.45867 17.3261 8.3C17.3261 7.14133 17.5388 6.078 17.9641 5.11C18.3895 4.142 18.9835 3.29867 19.7461 2.58C20.5235 1.84667 21.4328 1.282 22.4741 0.885999C23.5155 0.489999 24.6521 0.291999 25.8841 0.291999C27.1308 0.291999 28.2675 0.489999 29.2941 0.885999C30.3355 1.282 31.2375 1.84667 32.0001 2.58C32.7628 3.29867 33.3568 4.142 33.7821 5.11C34.2221 6.078 34.4421 7.14133 34.4421 8.3C34.4421 9.45867 34.2221 10.5293 33.7821 11.512C33.3568 12.48 32.7628 13.3233 32.0001 14.042C31.2375 14.7607 30.3355 15.318 29.2941 15.714C28.2675 16.11 27.1308 16.308 25.8841 16.308ZM25.8841 12.7C26.4708 12.7 27.0135 12.5973 27.5121 12.392C28.0255 12.1867 28.4655 11.8933 28.8321 11.512C29.2135 11.116 29.5068 10.6467 29.7121 10.104C29.9321 9.56133 30.0421 8.96 30.0421 8.3C30.0421 7.62533 29.9321 7.024 29.7121 6.496C29.5068 5.95333 29.2135 5.49133 28.8321 5.11C28.4655 4.714 28.0255 4.41333 27.5121 4.208C27.0135 4.00267 26.4708 3.9 25.8841 3.9C25.2975 3.9 24.7475 4.00267 24.2341 4.208C23.7355 4.41333 23.2955 4.714 22.9141 5.11C22.5475 5.49133 22.2541 5.95333 22.0341 6.496C21.8288 7.024 21.7261 7.62533 21.7261 8.3C21.7261 8.96 21.8288 9.56133 22.0341 10.104C22.2541 10.6467 22.5475 11.116 22.9141 11.512C23.2955 11.8933 23.7355 12.1867 24.2341 12.392C24.7475 12.5973 25.2975 12.7 25.8841 12.7ZM36.7236 16V0.599999H44.5996C46.6236 0.599999 48.1343 0.973999 49.1316 1.722C50.1289 2.45533 50.6276 3.42333 50.6276 4.626C50.6276 5.418 50.4149 6.11467 49.9896 6.716C49.5789 7.30267 48.9923 7.772 48.2296 8.124C47.4816 8.46133 46.5869 8.63 45.5456 8.63L45.9856 7.574C47.0709 7.574 48.0169 7.74267 48.8236 8.08C49.6303 8.40267 50.2536 8.87933 50.6936 9.51C51.1483 10.126 51.3756 10.8813 51.3756 11.776C51.3756 13.1107 50.8329 14.152 49.7476 14.9C48.6769 15.6333 47.1076 16 45.0396 16H36.7236ZM41.0356 12.854H44.6876C45.4356 12.854 46.0003 12.7293 46.3816 12.48C46.7776 12.216 46.9756 11.82 46.9756 11.292C46.9756 10.764 46.7776 10.3753 46.3816 10.126C46.0003 9.862 45.4356 9.73 44.6876 9.73H40.7276V6.716H44.0276C44.7609 6.716 45.3109 6.59133 45.6776 6.342C46.0443 6.09267 46.2276 5.71867 46.2276 5.22C46.2276 4.72133 46.0443 4.35467 45.6776 4.12C45.3109 3.87067 44.7609 3.746 44.0276 3.746H41.0356V12.854ZM61.3978 16.308C60.1658 16.308 59.0291 16.11 57.9878 15.714C56.9465 15.318 56.0371 14.7607 55.2598 14.042C54.4971 13.3087 53.9031 12.458 53.4778 11.49C53.0525 10.522 52.8398 9.45867 52.8398 8.3C52.8398 7.14133 53.0525 6.078 53.4778 5.11C53.9031 4.142 54.4971 3.29867 55.2598 2.58C56.0371 1.84667 56.9465 1.282 57.9878 0.885999C59.0291 0.489999 60.1658 0.291999 61.3978 0.291999C62.6445 0.291999 63.7811 0.489999 64.8078 0.885999C65.8491 1.282 66.7511 1.84667 67.5138 2.58C68.2765 3.29867 68.8705 4.142 69.2958 5.11C69.7358 6.078 69.9558 7.14133 69.9558 8.3C69.9558 9.45867 69.7358 10.5293 69.2958 11.512C68.8705 12.48 68.2765 13.3233 67.5138 14.042C66.7511 14.7607 65.8491 15.318 64.8078 15.714C63.7811 16.11 62.6445 16.308 61.3978 16.308ZM61.3978 12.7C61.9845 12.7 62.5271 12.5973 63.0258 12.392C63.5391 12.1867 63.9791 11.8933 64.3458 11.512C64.7271 11.116 65.0205 10.6467 65.2258 10.104C65.4458 9.56133 65.5558 8.96 65.5558 8.3C65.5558 7.62533 65.4458 7.024 65.2258 6.496C65.0205 5.95333 64.7271 5.49133 64.3458 5.11C63.9791 4.714 63.5391 4.41333 63.0258 4.208C62.5271 4.00267 61.9845 3.9 61.3978 3.9C60.8111 3.9 60.2611 4.00267 59.7478 4.208C59.2491 4.41333 58.8091 4.714 58.4278 5.11C58.0611 5.49133 57.7678 5.95333 57.5478 6.496C57.3425 7.024 57.2398 7.62533 57.2398 8.3C57.2398 8.96 57.3425 9.56133 57.5478 10.104C57.7678 10.6467 58.0611 11.116 58.4278 11.512C58.8091 11.8933 59.2491 12.1867 59.7478 12.392C60.2611 12.5973 60.8111 12.7 61.3978 12.7ZM77.6493 16.308C76.3879 16.308 75.1706 16.154 73.9973 15.846C72.8386 15.5233 71.8926 15.1127 71.1593 14.614L72.5893 11.402C73.2786 11.842 74.0706 12.2087 74.9653 12.502C75.8746 12.7807 76.7766 12.92 77.6713 12.92C78.2726 12.92 78.7566 12.8687 79.1233 12.766C79.4899 12.6487 79.7539 12.502 79.9153 12.326C80.0913 12.1353 80.1793 11.9153 80.1793 11.666C80.1793 11.314 80.0179 11.0353 79.6953 10.83C79.3726 10.6247 78.9546 10.456 78.4413 10.324C77.9279 10.192 77.3559 10.06 76.7253 9.928C76.1093 9.796 75.4859 9.62733 74.8553 9.422C74.2393 9.21667 73.6746 8.95267 73.1613 8.63C72.6479 8.29267 72.2299 7.86 71.9073 7.332C71.5846 6.78933 71.4233 6.10733 71.4233 5.286C71.4233 4.362 71.6726 3.526 72.1713 2.778C72.6846 2.03 73.4473 1.42867 74.4593 0.973999C75.4713 0.519332 76.7326 0.291999 78.2433 0.291999C79.2553 0.291999 80.2453 0.409333 81.2133 0.644C82.1959 0.863999 83.0686 1.194 83.8313 1.634L82.4893 4.868C81.7559 4.472 81.0299 4.17867 80.3113 3.988C79.5926 3.78267 78.8959 3.68 78.2213 3.68C77.6199 3.68 77.1359 3.746 76.7693 3.878C76.4026 3.99533 76.1386 4.15667 75.9773 4.362C75.8159 4.56733 75.7353 4.802 75.7353 5.066C75.7353 5.40333 75.8893 5.67467 76.1973 5.88C76.5199 6.07067 76.9379 6.232 77.4513 6.364C77.9793 6.48133 78.5513 6.606 79.1673 6.738C79.7979 6.87 80.4213 7.03867 81.0373 7.244C81.6679 7.43467 82.2399 7.69867 82.7533 8.036C83.2666 8.35867 83.6773 8.79133 83.9853 9.334C84.3079 9.862 84.4693 10.5293 84.4693 11.336C84.4693 12.2307 84.2126 13.0593 83.6993 13.822C83.2006 14.57 82.4453 15.1713 81.4333 15.626C80.4359 16.0807 79.1746 16.308 77.6493 16.308ZM89.5446 16V4.054H84.8146V0.599999H98.6086V4.054H93.9006V16H89.5446ZM100.231 16V0.599999H104.587V16H100.231Z" fill="white"/>
</svg>
