<svg width="32" height="32" viewBox="0 0 32 32" fill="none" xmlns="http://www.w3.org/2000/svg">
<path d="M18.1053 23.5368L10.9895 16.4211C10.8211 16.2526 10.7368 16.0421 10.7368 15.8316C10.7368 15.6211 10.8211 15.4105 10.9895 15.2421L17.7684 8.46316C18.1053 8.12632 18.6105 8.12632 18.9474 8.46316C19.2842 8.8 19.2842 9.30526 18.9474 9.64211L12.7579 15.8316L19.2842 22.3579C19.6211 22.6947 19.6211 23.2 19.2842 23.5368C18.9895 23.8737 18.4421 23.8737 18.1053 23.5368ZM16 32C7.15789 32 -1.56272e-06 24.8421 -1.17622e-06 16C-7.89719e-07 7.15789 7.15789 -1.08588e-06 16 -6.99382e-07C24.8421 -3.12881e-07 32 7.15789 32 16C32 24.8421 24.8421 32 16 32ZM16 30.3158C23.9158 30.3158 30.3158 23.9158 30.3158 16C30.3158 8.08421 23.9158 1.68421 16 1.68421C8.08421 1.68421 1.68421 8.08421 1.68421 16C1.68421 23.9158 8.08421 30.3158 16 30.3158Z" fill="white"/>
</svg>
